<svg xmlns="http://www.w3.org/2000/svg" width="280" height="560" viewBox="0 0 280 560" role="img" aria-label="Burn and Build app dashboard placeholder">
  <defs>
    <linearGradient id="bg" x1="0" y1="0" x2="0" y2="1">
      <stop offset="0%" stop-color="#111"/>
      <stop offset="100%" stop-color="#000"/>
    </linearGradient>
  </defs>
  <rect width="280" height="560" rx="32" fill="#1a1a1a"/>
  <rect x="8" y="8" width="264" height="544" rx="26" fill="url(#bg)"/>
  <rect x="98" y="16" width="84" height="6" rx="3" fill="#333"/>
  <text x="20" y="52" fill="#e8722a" font-family="system-ui,sans-serif" font-size="10" font-weight="700" letter-spacing="1.2">BURN &amp; BUILD</text>
  <text x="20" y="78" fill="#f5f5f5" font-family="system-ui,sans-serif" font-size="18" font-weight="700">Food Plan</text>
  <text x="210" y="78" fill="#888" font-family="system-ui,sans-serif" font-size="11">Day 1</text>
  <rect x="20" y="96" width="240" height="72" rx="12" fill="#141414" stroke="#2a2a2a"/>
  <text x="32" y="122" fill="#f5f5f5" font-family="system-ui,sans-serif" font-size="13" font-weight="600">Breakfast</text>
  <text x="32" y="144" fill="#888" font-family="system-ui,sans-serif" font-size="11">7:00 AM Ę 2/3 logged</text>
  <rect x="20" y="178" width="240" height="72" rx="12" fill="#141414" stroke="#2a2a2a"/>
  <text x="32" y="204" fill="#f5f5f5" font-family="system-ui,sans-serif" font-size="13" font-weight="600">Morning Snack</text>
  <text x="32" y="226" fill="#888" font-family="system-ui,sans-serif" font-size="11">9:30 AM</text>
  <rect x="20" y="260" width="240" height="72" rx="12" fill="#141414" stroke="#2a2a2a"/>
  <text x="32" y="286" fill="#f5f5f5" font-family="system-ui,sans-serif" font-size="13" font-weight="600">Lunch</text>
  <text x="32" y="308" fill="#888" font-family="system-ui,sans-serif" font-size="11">12:00 PM</text>
  <rect x="20" y="352" width="118" height="44" rx="12" fill="#e8722a"/>
  <text x="48" y="379" fill="#000" font-family="system-ui,sans-serif" font-size="11" font-weight="700">FOOD PLAN</text>
  <rect x="142" y="352" width="118" height="44" rx="12" fill="#141414" stroke="#2a2a2a"/>
  <text x="168" y="379" fill="#888" font-family="system-ui,sans-serif" font-size="11" font-weight="700">GROCERY</text>
  <text x="140" y="520" fill="#555" font-family="system-ui,sans-serif" font-size="10" text-anchor="middle">Dashboard preview</text>
</svg>
