<svg xmlns="http://www.w3.org/2000/svg" width="280" height="520" viewBox="0 0 280 520" role="img" aria-label="Burn and Build Food Plan app preview">
  <rect width="280" height="520" rx="32" fill="#111"/>
  <rect x="8" y="8" width="264" height="504" rx="26" fill="#000"/>
  <text x="20" y="36" fill="#e8722a" font-family="system-ui,sans-serif" font-size="9" font-weight="700" letter-spacing="1.1">BURN &amp; BUILD</text>
  <text x="20" y="62" fill="#f5f5f5" font-family="system-ui,sans-serif" font-size="17" font-weight="700">Food Plan</text>
  <text x="168" y="62" fill="#888" font-family="system-ui,sans-serif" font-size="10">Day 1 of 56 · Kory</text>

  <rect x="16" y="76" width="248" height="118" rx="14" fill="#141414" stroke="#2a2a2a"/>
  <text x="28" y="98" fill="#f5f5f5" font-family="system-ui,sans-serif" font-size="12" font-weight="700">Daily targets</text>
  <text x="28" y="122" fill="#888" font-family="system-ui,sans-serif" font-size="10">Protein</text>
  <text x="248" y="122" fill="#f5f5f5" font-family="system-ui,sans-serif" font-size="10" text-anchor="end">15</text>
  <text x="28" y="140" fill="#888" font-family="system-ui,sans-serif" font-size="10">Grains &amp; starches</text>
  <text x="248" y="140" fill="#f5f5f5" font-family="system-ui,sans-serif" font-size="10" text-anchor="end">13</text>
  <text x="28" y="158" fill="#888" font-family="system-ui,sans-serif" font-size="10">Reduce calories</text>
  <text x="248" y="158" fill="#6ecf8a" font-family="system-ui,sans-serif" font-size="10" text-anchor="end">2497</text>

  <rect x="16" y="202" width="248" height="36" rx="10" fill="#141414"/>
  <rect x="28" y="214" width="180" height="6" rx="3" fill="#222"/>
  <text x="28" y="232" fill="#888" font-family="system-ui,sans-serif" font-size="9">Fat points</text>
  <text x="252" y="232" fill="#888" font-family="system-ui,sans-serif" font-size="9" text-anchor="end">0.0 / 35 pts</text>

  <rect x="16" y="248" width="248" height="58" rx="12" fill="#141414" stroke="#2a2a2a"/>
  <rect x="16" y="248" width="4" height="58" rx="2" fill="#e8722a"/>
  <text x="32" y="272" fill="#5ec4e8" font-family="system-ui,sans-serif" font-size="13" font-weight="600">Breakfast</text>
  <text x="220" y="272" fill="#888" font-family="system-ui,sans-serif" font-size="10">6:00 AM</text>
  <text x="32" y="292" fill="#888" font-family="system-ui,sans-serif" font-size="10">0/2 logged</text>
  <text x="220" y="292" fill="#e8722a" font-family="system-ui,sans-serif" font-size="10">Expand</text>

  <rect x="16" y="314" width="248" height="58" rx="12" fill="#141414" stroke="#2a2a2a"/>
  <rect x="16" y="314" width="4" height="58" rx="2" fill="#e8722a"/>
  <text x="32" y="338" fill="#5ec4e8" font-family="system-ui,sans-serif" font-size="13" font-weight="600">Morning Snack</text>
  <text x="210" y="338" fill="#888" font-family="system-ui,sans-serif" font-size="10">9:00 AM</text>

  <rect x="16" y="380" width="248" height="58" rx="12" fill="#141414" stroke="#2a2a2a"/>
  <rect x="16" y="380" width="4" height="58" rx="2" fill="#e8722a"/>
  <text x="32" y="404" fill="#5ec4e8" font-family="system-ui,sans-serif" font-size="13" font-weight="600">Lunch</text>
  <text x="218" y="404" fill="#888" font-family="system-ui,sans-serif" font-size="10">12:00 PM</text>

  <rect x="16" y="452" width="118" height="40" rx="12" fill="#e8722a"/>
  <text x="75" y="477" fill="#000" font-family="system-ui,sans-serif" font-size="10" font-weight="700" text-anchor="middle">FOOD PLAN</text>
  <rect x="146" y="452" width="118" height="40" rx="12" fill="#141414" stroke="#2a2a2a"/>
  <text x="205" y="477" fill="#888" font-family="system-ui,sans-serif" font-size="10" font-weight="700" text-anchor="middle">GROCERY</text>
</svg>
